<svg width="142" height="71" viewBox="0 0 142 71" fill="none" xmlns="http://www.w3.org/2000/svg">
<path d="M1.12699 45.3654C0.353426 39.9504 3.30264 31.7474 4.87395 28.3228C15.027 72.6094 50.5224 67.7262 67.0009 59.7488C29.8698 84.8897 7.61366 60.6352 1.12699 45.3654Z" fill="#239868" stroke="#239868" stroke-width="0.241739"/>
<path d="M10.4339 19.0158C12.4645 14.8579 17.8069 10.8369 20.2243 9.34622C13.649 50.0551 45.0429 60.3935 61.5617 60.474C18.9189 67.7262 9.70867 35.8569 10.4339 19.0158Z" fill="#239868" stroke="#239868" stroke-width="0.241739"/>
<path d="M27.3556 4.26969L38.8382 1.24796C21.433 28.9029 38.9994 49.1123 49.9582 55.7601C18.7255 45.5104 21.8762 17.1624 27.3556 4.26969Z" fill="#239868" stroke="#239868" stroke-width="0.241739"/>
<path d="M61.6826 5.11581L69.2974 9.46712C49.3781 12.9482 44.1565 27.8393 44.0357 34.8497C42.7786 16.1875 55.2765 7.25118 61.6826 5.11581Z" fill="#239868" stroke="#239868" stroke-width="0.241739"/>
<path d="M56.2435 1.97317C55.4699 1.10291 48.5079 0.965925 45.1235 1.00621C29.7489 16.2841 36.2195 36.9448 41.3766 45.3654C31.8279 15.148 57.2105 3.061 56.2435 1.97317Z" fill="#239868" stroke="#239868" stroke-width="0.241739"/>
<path d="M74.5011 47.9234C73.7823 48.2684 73.0348 48.6134 72.2585 48.9584C71.511 49.2747 70.706 49.5622 69.8435 49.8209C68.9809 50.0509 68.0322 50.2378 66.9971 50.3816C65.9908 50.5253 64.8839 50.5972 63.6764 50.5972C59.8238 50.5972 56.8481 49.7347 54.7493 48.0096C52.6792 46.2846 51.6442 43.4095 51.6442 39.3844C51.6442 37.0556 52.0036 34.8705 52.7223 32.8292C53.4411 30.7591 54.5049 28.9622 55.9137 27.4384C57.3225 25.8859 59.0619 24.6639 61.132 23.7727C63.202 22.8814 65.574 22.4358 68.2478 22.4358C69.5128 22.4358 70.6629 22.522 71.6979 22.6945C72.7617 22.867 73.7104 23.097 74.5442 23.3845C75.4067 23.6433 76.1686 23.9308 76.8299 24.2471C77.5199 24.5633 78.1381 24.8652 78.6843 25.1527L77.1318 33.1742H69.3691C69.3978 32.8867 69.4266 32.5129 69.4553 32.0529C69.5128 31.5929 69.556 31.1329 69.5847 30.6729C69.6135 30.1841 69.6422 29.7097 69.671 29.2497C69.6997 28.7897 69.7141 28.4016 69.7141 28.0853C69.7141 27.8553 69.6997 27.5965 69.671 27.309C69.6422 26.9928 69.5703 26.6909 69.4553 26.4034C69.3403 26.1159 69.1534 25.8859 68.8947 25.7134C68.6647 25.5121 68.3484 25.4115 67.9459 25.4115C67.1984 25.4115 66.5084 25.7277 65.8758 26.3602C65.2721 26.964 64.7258 27.7834 64.237 28.8184C63.7483 29.8247 63.317 30.9748 62.9433 32.2685C62.5695 33.5623 62.2532 34.8849 61.9945 36.2362C61.7645 37.5587 61.5776 38.8669 61.4338 40.1607C61.3188 41.4544 61.2613 42.5901 61.2613 43.5676C61.2613 43.8551 61.2757 44.2145 61.3045 44.6458C61.3332 45.077 61.4195 45.4939 61.5632 45.8964C61.707 46.299 61.9226 46.644 62.2101 46.9315C62.5264 47.219 62.9433 47.3627 63.4608 47.3627C64.3521 47.3627 65.2146 46.8165 66.0484 45.7239C66.8821 44.6027 67.6153 42.6188 68.2478 39.7725H76.2261L74.5011 47.9234ZM91.5649 38.4356C92.4275 38.4356 93.1462 38.0762 93.7213 37.3574C94.325 36.6387 94.8138 35.7618 95.1876 34.7267C95.5901 33.6917 95.8776 32.6136 96.0501 31.4923C96.2226 30.371 96.3088 29.3935 96.3088 28.5597C96.3088 27.7834 96.1795 27.1365 95.9207 26.619C95.6619 26.0727 95.1013 25.7996 94.2388 25.7996H92.2981L89.5811 38.4356H91.5649ZM88.9774 41.1957L87.0367 50.2522H77.7214L83.5435 22.867H93.5056C95.1444 22.867 96.6395 22.9533 97.9908 23.1258C99.342 23.2983 100.506 23.6433 101.484 24.1608C102.462 24.6783 103.223 25.4258 103.77 26.4034C104.316 27.3522 104.589 28.6316 104.589 30.2416C104.589 31.7367 104.345 33.1598 103.856 34.5111C103.396 35.8337 102.634 36.9981 101.57 38.0043C100.535 38.9819 99.1839 39.7581 97.5164 40.3332C95.8488 40.9082 93.8219 41.1957 91.4356 41.1957H88.9774ZM135.235 50.2522H125.661L129.629 31.6217L119.408 50.2522H113.542L111.602 30.9748L107.462 50.2522H103.58L109.402 22.867H120.4L121.736 38.3062L130.017 22.867H141.1L135.235 50.2522Z" fill="#239868"/>
</svg>
